<?xml version="1.0" encoding="UTF-8"?>
<svg version="1.1" xmlns="http://www.w3.org/2000/svg" width="516" height="112">
<path d="M0 0 C-2.15809264 6.54631439 -4.40218462 13.05960885 -6.6875 19.5625 C-7.00783203 20.47580078 -7.32816406 21.38910156 -7.65820312 22.33007812 C-8.43818322 24.55360346 -9.21879162 26.77690598 -10 29 C-9.07960938 28.29617187 -9.07960938 28.29617187 -8.140625 27.578125 C-4.34533971 24.78014095 -1.4981605 23.77550273 3.1875 24.25 C7 25 7 25 9 27 C8.77240644 33.60021335 7.15211082 39.79911061 5.46044922 46.15087891 C4.32951263 50.43703352 3.54713316 54.61153613 3 59 C10.67894987 53.62473509 15.30597641 45.42021298 19.5 37.1875 C22.4320329 31.73946589 26.74299541 27.80415428 32.13671875 24.81640625 C36.36378451 23.61114466 40.44252885 23.79027274 44.8125 23.875 C45.69615234 23.88402344 46.57980469 23.89304687 47.49023438 23.90234375 C49.66027359 23.92580363 51.83017247 23.96167135 54 24 C52.43118748 31.50897641 50.31877498 38.74820484 48.03515625 46.06640625 C47.77347656 46.91847656 47.51179688 47.77054688 47.2421875 48.6484375 C47.0035498 49.41333496 46.76491211 50.17823242 46.51904297 50.96630859 C45.87635252 53.13465643 45.87635252 53.13465643 46 56 C47.10499565 54.27136297 48.20895914 52.54206612 49.3125 50.8125 C49.92738281 49.84957031 50.54226562 48.88664062 51.17578125 47.89453125 C51.77777344 46.93933594 52.37976563 45.98414063 53 45 C53.53109375 44.19046875 54.0621875 43.3809375 54.609375 42.546875 C56.76264452 38.60324656 57.68576108 34.38015871 58.83984375 30.05859375 C60.09492859 26.7497337 61.22645069 25.16635299 64 23 C67.75 22.25 67.75 22.25 71 22 C72.12632237 25.3789671 71.86818112 26.20257909 70.85546875 29.5 C70.59137207 30.38276611 70.32727539 31.26553223 70.05517578 32.17504883 C69.76884277 33.10728271 69.48250977 34.0395166 69.1875 35 C67.01961528 42.28198068 65.02513061 49.45291772 64 57 C68.07020972 54.0619965 70.83268509 50.82550972 73.5 46.625 C73.8916333 46.01938232 74.2832666 45.41376465 74.68676758 44.78979492 C78.03777406 39.39160789 79.94837811 33.99828035 81.63671875 27.86328125 C83 25 83 25 85.89453125 23.04296875 C88.94700321 22.01779892 90.09669367 21.77167809 93 23 C92.38488321 29.76628467 91.26762187 36.38566459 90.01635742 43.05834961 C89.39126516 46.45639593 89 49.53045589 89 53 C92.46707375 48.2140394 95.84085922 43.47137584 98.625 38.25 C101.64504509 32.66390352 104.97384546 27.6022031 111 25 C118.18227786 23.46094046 125.70144022 23.89847444 133 24 C134.48412299 26.96824597 133.35473216 28.62585367 132.34765625 31.7421875 C131.98349609 32.89074219 131.61933594 34.03929687 131.24414062 35.22265625 C130.85419922 36.42792969 130.46425781 37.63320313 130.0625 38.875 C129.29820093 41.24573066 128.53886578 43.61806895 127.78515625 45.9921875 C127.44363525 47.04776855 127.10211426 48.10334961 126.75024414 49.19091797 C125.82797754 52.15950006 125.82797754 52.15950006 126 56 C126.39791748 55.30326172 126.79583496 54.60652344 127.20581055 53.88867188 C129.01398059 50.74768222 130.8501689 47.62401352 132.6875 44.5 C133.31333984 43.40300781 133.93917969 42.30601563 134.58398438 41.17578125 C135.19951172 40.13808594 135.81503906 39.10039063 136.44921875 38.03125 C137.00955811 37.06767578 137.56989746 36.10410156 138.1472168 35.11132812 C140 33 140 33 142.72192383 32.68554688 C143.47368896 32.78931641 144.2254541 32.89308594 145 33 C143.41910832 38.71910813 140.60793177 43.48759108 137.625 48.5625 C136.90183594 49.81836914 136.90183594 49.81836914 136.1640625 51.09960938 C129.7196192 62.15848422 129.7196192 62.15848422 125.0625 64.4375 C121.49725813 65.09234034 120.09441213 64.83992072 117 63 C115.1875 60.875 115.1875 60.875 114 59 C113.34 59.804375 112.68 60.60875 112 61.4375 C108.01873146 64.83816688 106.19577135 65 101 65 C97.23822697 63.41169583 95.22186581 61.39126887 93 58 C88.96888759 60.79326495 85.80587848 63.18542753 84.6171875 68.1015625 C84.34588032 69.6052565 84.09921829 71.11356711 83.875 72.625 C83.57730926 74.22812579 83.27127498 75.82972408 82.95703125 77.4296875 C82.72814209 78.59709473 82.72814209 78.59709473 82.49462891 79.78808594 C80.51341147 88.6478243 76.72062151 96.06614874 69.75 101.875 C64.5799552 103.99001833 59.81148204 103.67091927 54.625 101.75 C50.91743612 99.27829075 49.40047056 97.20141168 48 93 C47.42344225 87.27877307 47.64160834 81.8582559 51 77 C55.86699302 71.29347904 61.20206917 68.34673743 68 65.5625 C72.98155728 63.63342877 72.98155728 63.63342877 76.18359375 59.5625 C76.41907972 57.24386892 76.41007967 55.28917891 76 53 C75.43152344 53.71027344 74.86304688 54.42054687 74.27734375 55.15234375 C67.17788934 63.60294641 67.17788934 63.60294641 63.1875 64.375 C60 64 60 64 57.6875 62.375 C55.98312815 59.97625443 54.92825794 57.78477381 54 55 C53.63648438 55.55429688 53.27296875 56.10859375 52.8984375 56.6796875 C50.47896463 60.16620995 48.70003691 62.61426538 44.9375 64.6875 C42 65 42 65 39.1875 63.875 C36.77849743 61.81014065 36.5773152 60.99210673 36 58 C35.5875 58.42152344 35.175 58.84304687 34.75 59.27734375 C30.2223798 63.57251916 27.29893485 65.10159572 21 65 C18.0625 63.875 18.0625 63.875 16 62 C15.37109375 59.3828125 15.37109375 59.3828125 15 57 C14.35933594 57.5775 13.71867187 58.155 13.05859375 58.75 C6.00419378 64.80563991 6.00419378 64.80563991 1.125 65.75 C-2.59459221 64.85729787 -3.87791342 64.18312987 -6 61 C-7.4683268 54.84739151 -6.45842313 49.79014188 -5.125 43.75 C-4.84462891 42.40421875 -4.84462891 42.40421875 -4.55859375 41.03125 C-3.83734863 37.61428729 -3.10533136 34.31599408 -2 31 C-8.2137848 34.17914571 -10.77832493 38.44685772 -13 45 C-13.78602201 48.70528334 -14.38065245 52.43818885 -14.83666992 56.19799805 C-15.28303435 59.46947264 -15.57661749 61.55295014 -17.88671875 63.9921875 C-20.68169599 65.32509716 -22.94547052 65.20826337 -26 65 C-26.495 61.535 -26.495 61.535 -27 58 C-27.53625 58.78375 -28.0725 59.5675 -28.625 60.375 C-31.37184738 63.41098921 -32.97401805 64.34269682 -37 65 C-39.8125 63.875 -39.8125 63.875 -42 62 C-42.63671875 59.8828125 -42.63671875 59.8828125 -43 58 C-43.4125 58.42152344 -43.825 58.84304687 -44.25 59.27734375 C-48.7776202 63.57251916 -51.70106515 65.10159572 -58 65 C-60.9291208 63.79014576 -62.42298609 62.76935187 -64.3125 60.25 C-66.58335221 52.81812002 -63.96543513 45.8948662 -61 39 C-59.27711938 36.02592078 -57.33292489 33.51798864 -55 31 C-54.46375 30.41089844 -53.9275 29.82179688 -53.375 29.21484375 C-48.87547103 24.80905497 -45.17027793 24.02690528 -39 24 C-37.783125 23.98582031 -36.56625 23.97164062 -35.3125 23.95703125 C-31.87386673 23.93969943 -28.43832319 23.95598164 -25 24 C-25.39514937 25.45851881 -25.79120057 26.91679326 -26.1875 28.375 C-26.455625 29.36242187 -26.72375 30.34984375 -27 31.3671875 C-27.75942769 34.12604592 -28.5308651 36.88024478 -29.3125 39.6328125 C-29.5391333 40.43541504 -29.7657666 41.23801758 -29.99926758 42.06494141 C-30.4542932 43.67488308 -30.91241267 45.28395386 -31.3737793 46.89208984 C-32.25261583 50.01123643 -33 52.74256975 -33 56 C-26.34602902 46.89723259 -23.29823757 38.08139435 -20.44140625 27.26171875 C-19.15053943 22.40255891 -17.58944976 17.70144372 -15.8125 13 C-15.45551025 12.04033325 -15.45551025 12.04033325 -15.09130859 11.0612793 C-11.52138555 1.78123057 -9.64500363 -0.15556457 0 0 Z M-43.359375 29.22265625 C-49.99115883 37.9967298 -56.38350577 48.73431016 -55 60 C-48.93452362 58.00208126 -46.93320458 54.46607677 -44 49 C-41.25723253 42.83796478 -38.74329734 36.74759535 -38 30 C-38.33 29.34 -38.66 28.68 -39 28 C-41.93296829 27.66563569 -41.93296829 27.66563569 -43.359375 29.22265625 Z M37 28 C29.39388363 36.3090513 23.78768323 47.74721123 24 59 C28.03432032 59.44452991 28.03432032 59.44452991 30.375 56.875 C36.13896571 49.36221497 39.60604766 39.29301557 41 30 C40.67 29.34 40.34 28.68 40 28 C39.01 28 38.02 28 37 28 Z M115.60546875 29.328125 C109.37430513 37.77366908 103.70375158 47.29444571 103 58 C103.33 58.66 103.66 59.32 104 60 C107.7650236 59.13942318 109.47129016 57.71183051 111.5 54.5625 C116.50696881 45.8953736 120.19391547 38.08360441 120 28 C117.04110542 27.65517241 117.04110542 27.65517241 115.60546875 29.328125 Z M58.6875 77.07421875 C54.41482077 81.8898843 52.61201966 85.32940615 52.72265625 91.9921875 C53.18121786 95.31191523 54.47960617 96.87756309 57 99 C59.95625267 99.9168463 59.95625267 99.9168463 63 99 C71.36639141 91.43040777 72.98708984 79.58302767 75 69 C69.35199759 69 62.75765558 73.4234542 58.6875 77.07421875 Z " fill="#172156" transform="translate(112,9)"/>
<path d="M0 0 C1.25541557 3.76624671 0.37061958 5.37188934 -1 9 C1.64 9 4.28 9 7 9 C7.33 10.32 7.66 11.64 8 13 C3.71 13.99 -0.58 14.98 -5 16 C-5.37125 18.1346875 -5.37125 18.1346875 -5.75 20.3125 C-6.42240897 24.0615428 -7.16238071 27.78618397 -7.98828125 31.50390625 C-10.02480919 40.70744599 -11.66071267 49.55084797 -12 59 C-9.08442774 54.78099544 -6.27643716 50.54087472 -3.7734375 46.0625 C-3.38728271 45.3826001 -3.00112793 44.7027002 -2.60327148 44.00219727 C-1.83207081 42.63632415 -1.07603491 41.26176622 -0.33618164 39.87866211 C0.75390625 37.96484375 0.75390625 37.96484375 3 35 C5.77734375 34.56640625 5.77734375 34.56640625 8 35 C6.3881562 40.56901088 3.82868878 45.46648018 1.125 50.5625 C0.47337891 51.81836914 0.47337891 51.81836914 -0.19140625 53.09960938 C-3.09580553 58.6075017 -5.70910965 63.47273977 -11 67 C-14.41917424 67.43649033 -16.28429109 67.43737767 -19.25 65.625 C-21.84950358 61.72574462 -22.33521133 57.58354293 -23 53 C-23.556875 53.60328125 -24.11375 54.2065625 -24.6875 54.828125 C-31.41391881 61.87268525 -37.04414728 66.33655075 -46.9609375 67.03515625 C-50.99446253 66.96561272 -53.22149572 65.68953236 -56.1875 63.0625 C-58 61 -58 61 -60 58 C-60.38929688 58.39832031 -60.77859375 58.79664063 -61.1796875 59.20703125 C-65.90530028 63.68220833 -70.50204231 66.12832275 -77 67 C-81.89730994 66.81635088 -85.00203867 65.99796133 -88.5 62.5 C-90 60 -90 60 -91 58 C-91.48210937 58.5053125 -91.96421875 59.010625 -92.4609375 59.53125 C-93.40839844 60.50578125 -93.40839844 60.50578125 -94.375 61.5 C-95.00148438 62.1496875 -95.62796875 62.799375 -96.2734375 63.46875 C-98 65 -98 65 -100 65 C-100.08975098 65.54301758 -100.17950195 66.08603516 -100.27197266 66.64550781 C-104.81614896 93.38993769 -104.81614896 93.38993769 -114.25 100.6875 C-118.80669755 103.68114432 -122.4858069 104.64423246 -128 104 C-131 102 -131 102 -132 99 C-133.0380687 89.65738169 -129.33362397 82.07089288 -123.6875 74.6875 C-120.08831456 71.08831456 -116.24540436 67.81914867 -112 65 C-111.34 65 -110.68 65 -110 65 C-109.34 60.38 -108.68 55.76 -108 51 C-109.11375 52.216875 -110.2275 53.43375 -111.375 54.6875 C-115.78033414 59.10845589 -120.35578471 61.48722962 -126 64 C-127.051875 64.598125 -128.10375 65.19625 -129.1875 65.8125 C-132.74884622 67.31617952 -135.16834674 67.48766496 -139 67 C-142.47989889 64.83472958 -144.49755564 62.82440382 -146 59 C-146.515625 59.763125 -147.03125 60.52625 -147.5625 61.3125 C-150.53937731 64.59469806 -152.74750829 65.77470578 -157 67 C-160.8125 66.4375 -160.8125 66.4375 -164 65 C-167.00970529 60.48057199 -165.96805615 56.0907568 -165 51 C-164.03446146 47.56002464 -162.97448843 44.17293876 -161.83984375 40.78515625 C-160.85564864 38.00612829 -160.85564864 38.00612829 -161 35 C-161.86625 36.0209375 -161.86625 36.0209375 -162.75 37.0625 C-163.4925 37.701875 -164.235 38.34125 -165 39 C-167.25 38.75 -167.25 38.75 -169 38 C-168.67 37.01 -168.34 36.02 -168 35 C-167.90042673 33.1883196 -167.81888329 31.37560667 -167.75 29.5625 C-167.32402165 24.37518296 -167.32402165 24.37518296 -164.625 21.25 C-162 20 -162 20 -159 21 C-158.30244724 22.69405671 -157.61079726 24.39107321 -156.96484375 26.10546875 C-155.57955063 28.82557872 -153.51207632 30.41937042 -151.109375 32.25 C-149.23173107 35.21191718 -150.27079948 37.69108066 -151 41 C-151.77546773 43.39451858 -152.61000307 45.77064767 -153.5 48.125 C-154.98870494 52.0804544 -156.30686287 55.8254241 -157 60 C-148.74844112 55.7526638 -144.72965299 46.74669665 -140.9375 38.625 C-138.50079615 33.54520482 -135.83995448 29.96491158 -131 27 C-127.28866861 25.76288954 -123.85750565 25.45449415 -120 26 C-116.92121649 28.02551546 -116.11166305 29.73413559 -114.6875 33.125 C-113.54055886 39.58957732 -114.6736945 45.62919922 -116 52 C-108.14307696 42.55346061 -108.14307696 42.55346061 -104.0625 31.1875 C-103.28178812 27.19568619 -103.28178812 27.19568619 -100.75 25.4375 C-97.77976726 24.96496297 -95.00270815 24.86033916 -92 25 C-92.88132059 29.98723772 -93.78028453 34.96883866 -94.80078125 39.9296875 C-94.93701904 40.59411865 -95.07325684 41.2585498 -95.21362305 41.94311523 C-95.61059871 43.8676815 -96.01224318 45.79128293 -96.4140625 47.71484375 C-97.11705871 51.10014235 -97.11705871 51.10014235 -97 55 C-93.51641669 50.68875682 -90.56846046 46.35698511 -88 41.4375 C-84.6442458 35.12027082 -80.80771707 28.91759303 -74 26 C-70.03891865 24.96526855 -66.97404933 24.73619497 -63 25.8125 C-60.67130573 28.35950935 -60.57395721 29.25843458 -60.375 32.625 C-60.94353981 42.4323118 -66.91954937 48.36343296 -73.59765625 55.03125 C-75.87338146 56.89623457 -77.12985441 57.62880334 -80 58 C-79.67 58.66 -79.34 59.32 -79 60 C-72.44950124 59.72125537 -68.00398492 57.18077853 -63 53 C-59.68069787 49.34814019 -57.77044104 45.60724055 -55.75 41.125 C-52.39812176 34.15425567 -48.89661782 28.84184707 -41.4453125 26.0390625 C-37.31247728 24.99665599 -34.9110441 24.60955253 -30.9375 26.3125 C-28.01445087 28.8583815 -28.01445087 28.8583815 -27.6875 32.0625 C-28.05842941 36.73621055 -29.15680919 40.24259992 -32 44 C-34.625 45.0625 -34.625 45.0625 -37 45 C-37.66 44.67 -38.32 44.34 -39 44 C-38.71125 43.154375 -38.4225 42.30875 -38.125 41.4375 C-36.99227296 37.97638959 -35.98175684 34.50627443 -35 31 C-40.93571334 33.71346895 -43.45777784 38.47316526 -45.98046875 44.2421875 C-47.84793488 49.30977163 -48.47260704 53.61227979 -48 59 C-46.16918103 61.29058908 -46.16918103 61.29058908 -43.4375 61.0625 C-34.60108126 58.3312433 -27.70950693 50.63994608 -22.97509766 42.91748047 C-19.83815251 36.7488357 -18.48457913 29.71417695 -17 23 C-20.40297337 23.82115227 -23.68604223 24.87024167 -27 26 C-26.39446367 19.58131488 -26.39446367 19.58131488 -24.8125 17.25 C-20.80463688 14.48595647 -17.92330455 13 -13 13 C-12.82984375 12.39671875 -12.6596875 11.7934375 -12.484375 11.171875 C-10.2594034 3.83420269 -8.5579357 -0.77799415 0 0 Z M-124 29 C-129.26047466 33.52985318 -132.43051983 38.68460583 -133.3515625 45.6640625 C-133.50826721 50.49341689 -133.42861417 53.33666408 -130 57 C-129.34 57 -128.68 57 -128 57 C-123.71225468 44.76067323 -123.71225468 44.76067323 -122 32 C-122.66 31.01 -123.32 30.02 -124 29 Z M-71 31 C-75.83043474 36.43423908 -79.73039837 43.68637385 -80.1875 51 C-80.125625 51.66 -80.06375 52.32 -80 53 C-74.10690499 50.4925708 -70.75849843 44.95183616 -68.0625 39.3125 C-66.97719321 35.92889648 -66.89144778 34.32565667 -68 31 C-68.99 31 -69.98 31 -71 31 Z M-136 56 C-135.67 57.98 -135.34 59.96 -135 62 C-133.68 61.67 -132.36 61.34 -131 61 C-132.65 59.35 -134.3 57.7 -136 56 Z M-117.3125 76 C-123.42345095 82.21781973 -126.21786337 87.43497312 -127.01953125 96.1171875 C-127.13647836 98.09196973 -127.13647836 98.09196973 -126 100 C-122.92369212 99.69236921 -121.42282127 99.4647137 -119.3046875 97.13671875 C-114.72979437 89.29940183 -111.69874342 81.18832555 -112 72 C-114.09455743 72 -115.934955 74.66529191 -117.3125 76 Z " fill="#172156" transform="translate(508,7)"/>
<path d="M0 0 C4.09689509 3.29750093 4.85512842 5.69615581 5.4375 10.9375 C5.36968233 19.22481896 0.28550951 26.91860296 -5 33 C-14.18132623 41.33937055 -25.2227519 44.96235244 -37 48 C-38.93049016 57.30496258 -40.65113611 66.58969077 -42 76 C-45 75 -45 75 -46.66796875 72.78515625 C-50.47520988 64.82456116 -47.64831521 54.30044444 -46 46 C-47.98 45.67 -49.96 45.34 -52 45 C-52 44.01 -52 43.02 -52 42 C-50.02 42 -48.04 42 -46 42 C-45.84966309 41.43716309 -45.69932617 40.87432617 -45.54443359 40.29443359 C-38.31137725 13.46706587 -38.31137725 13.46706587 -32 4 C-28.9609375 3.48828125 -28.9609375 3.48828125 -25.375 3.3125 C-24.18648438 3.24675781 -22.99796875 3.18101563 -21.7734375 3.11328125 C-20.85820312 3.07589844 -19.94296875 3.03851562 -19 3 C-19.72210697 7.13380077 -21.77098975 10.63458559 -23.6875 14.3125 C-28.10532576 22.94947415 -31.92912413 31.78737238 -35 41 C-24.31636134 38.18070646 -16.77872888 32.49907148 -11 23 C-8.67578828 17.70463103 -7.06571141 12.6647023 -9 7 C-11.84950038 3.47951635 -14.807638 2.96623002 -19.1328125 2.2265625 C-29.52359401 1.40549257 -42.10599988 5.11005996 -50.4375 11.375 C-53 13 -53 13 -56.25 12.9375 C-59 12 -59 12 -61 9 C-44.75232014 -1.72959991 -18.39873432 -11.56830291 0 0 Z " fill="#172156" transform="translate(335,6)"/>
<path d="M0 0 C2.91488524 2.47880004 3.45776382 5.05200297 3.98828125 8.765625 C3.77944245 15.74867232 0.03066736 22.50666526 -4.62109375 27.5546875 C-9.71977605 32.07651159 -12.52004838 33.63360765 -19.51171875 33.265625 C-20.50171875 32.605625 -21.49171875 31.945625 -22.51171875 31.265625 C-22.51171875 30.275625 -22.51171875 29.285625 -22.51171875 28.265625 C-20.7890625 26.94140625 -20.7890625 26.94140625 -18.44921875 25.578125 C-12.55537809 21.82242843 -7.22190328 17.27117858 -4.94921875 10.453125 C-4.13255763 7.11645238 -4.13255763 7.11645238 -6.51171875 4.265625 C-15.28296081 2.26516628 -22.89889106 4.19982535 -30.55859375 8.79296875 C-34.38317484 11.67670289 -35.99269087 14.75775578 -36.953125 19.3984375 C-37.39864888 24.83951633 -35.87316803 28.3983562 -32.6953125 32.7421875 C-29.40916879 36.5397704 -25.84876504 40.05424638 -22.18286133 43.48535156 C-17.85789343 47.60461273 -14.31428341 51.75648023 -12.9453125 57.7421875 C-12.95254367 61.71933293 -13.13985261 63.72581932 -15.44921875 67.078125 C-23.66541779 72.9468386 -31.97117438 74.91129852 -42.06640625 74.046875 C-47.46841634 73.10106852 -50.77229695 71.28550344 -54.51171875 67.265625 C-55.97487447 63.90897364 -55.65324129 62.65088081 -54.38671875 59.203125 C-52.03220734 55.51439046 -49.41940979 53.21947052 -45.51171875 51.265625 C-41.46029756 51.00702365 -39.96834206 50.96120946 -36.51171875 53.265625 C-37.64368888 56.14700351 -38.5232382 57.27405387 -41.07421875 59.140625 C-43.8018622 61.10966435 -43.8018622 61.10966435 -44.32421875 64.515625 C-44.38609375 65.423125 -44.44796875 66.330625 -44.51171875 67.265625 C-38.58590912 68.95871347 -32.68276247 69.14166018 -26.94921875 66.828125 C-24.65450134 65.47963988 -24.65450134 65.47963988 -23.51171875 64.265625 C-23.79065807 57.29214203 -26.38387678 53.1996477 -31.33984375 48.55078125 C-32.68289118 47.38486803 -34.03341465 46.22752053 -35.390625 45.078125 C-42.46964535 39.02901737 -48.49304129 33.37768975 -50.07421875 23.890625 C-48.85510301 16.03410137 -45.07439472 9.77051936 -38.89453125 4.80078125 C-27.85006042 -2.31475488 -12.17568872 -6.57017892 0 0 Z " fill="#172156" transform="translate(55.51171875,2.734375)"/>
<path d="M0 0 C2 2 2 2 2.3125 4.4375 C2 7 2 7 1 8.8125 C-2.23988962 10.73618446 -5.2825819 10.18282384 -9 10 C-10.1875 8.3125 -10.1875 8.3125 -11 6 C-8.35775067 0.31916394 -6.10288202 -0.38143013 0 0 Z " fill="#172156" transform="translate(418,14)"/>
</svg>
